# xmcd
#
# Track frame offsets:
# 150
# 16722
# 31005
# 49470
# 62747
# 78950
# 97005
# 110845
# 126760
# 139930
# 155582
# 169895
# 182757
# 197760
#
# Disc length: 2878 seconds
#
#
# Revision: 0
# Processed by: cddbd v1.5.1PL2 Copyright (c) Steve Scherf et al.
# Submitted via: FreeRIP 2.945 
#
DISCID=bf0b3c0e
DTITLE=Rodeo Life II - Rodeo Life II
DYEAR=1900
DGENRE=Country
TTITLE0=Alan Jackson - Mercury Blues
TTITLE1=Brooks and Dunn - Brand New Whiskey
TTITLE2=Alabama - Dancin Shaggin On The Boulevard
TTITLE3=Pam Tillis - I Said A Prayer
TTITLE4=Mindy McCready - If I Dont Stay The Night
TTITLE5=Diamond Rio - Youre Gone
TTITLE6=Charlie Major - Everthings Alrights
TTITLE7=Clint Black - The Shoes Youre Wearing
TTITLE8=Sara Evans - Cryin Game
TTITLE9=Martina McBride - Happy Girl
TTITLE10=Lee Roy Parnell - Tender Moment
TTITLE11=Lorrie Morgan - Go Away
TTITLE12=Michelle Wright - What Love Looks Like
TTITLE13=The Thompson Brothers Band - Back On The Farm
EXTD=
EXTT0=
EXTT1=
EXTT2=
EXTT3=
EXTT4=
EXTT5=
EXTT6=
EXTT7=
EXTT8=
EXTT9=
EXTT10=
EXTT11=
EXTT12=
EXTT13=
PLAYORDER=
